# xmcd CD database file
#
# Track frame offsets:
#	150
#	12251
#	45368
#	68558
#	90582
#	117618
#	145973
#	177584
#	200134
#	234023
#	254253
#	282737
#	311361
#
# Disc length: 4344 seconds
#
# Revision: 2
# Processed by: cddbd v1.5.2PL0 Copyright (c) Steve Scherf et al.
# Submitted via: CDex 1.51
#
DISCID=b710f60d
DTITLE=Emerald City Jazz Orchestra - Alive and Swingin'
DYEAR=1900
DGENRE=Jazz
TTITLE0=It's Only a Paper Moon
TTITLE1=Love for Sale
TTITLE2=So What 
TTITLE3=Nancy
TTITLE4=Kites
TTITLE5=Moonlight and Mo's
TTITLE6=Tolovania Stomp
TTITLE7=I Remember Clifford
TTITLE8=New Blues
TTITLE9=Very Early
TTITLE10=Waltzing Matilda
TTITLE11=Well You Needn't
TTITLE12=Stardust
EXTD=
EXTT0=
EXTT1=
EXTT2=
EXTT3=
EXTT4=
EXTT5=
EXTT6=
EXTT7=
EXTT8=
EXTT9=
EXTT10=
EXTT11=
EXTT12=
PLAYORDER=
